<svg width="1920" height="1080" viewBox="0 0 1920 1080" fill="none" xmlns="http://www.w3.org/2000/svg">
  <defs>
    <linearGradient id="cityGradient" x1="0%" y1="0%" x2="100%" y2="100%">
      <stop offset="0%" style="stop-color:#1a1a2e;stop-opacity:1" />
      <stop offset="50%" style="stop-color:#16213e;stop-opacity:1" />
      <stop offset="100%" style="stop-color:#0f0f23;stop-opacity:1" />
    </linearGradient>
    
    <linearGradient id="redGlow" x1="0%" y1="0%" x2="100%" y2="100%">
      <stop offset="0%" style="stop-color:#ff6b6b;stop-opacity:0.8" />
      <stop offset="50%" style="stop-color:#ee5a52;stop-opacity:0.6" />
      <stop offset="100%" style="stop-color:#d63384;stop-opacity:0.4" />
    </linearGradient>
    
    <filter id="glow">
      <feGaussianBlur stdDeviation="3" result="coloredBlur"/>
      <feMerge> 
        <feMergeNode in="coloredBlur"/>
        <feMergeNode in="SourceGraphic"/>
      </feMerge>
    </filter>
  </defs>
  
  <!-- Background -->
  <rect width="1920" height="1080" fill="url(#cityGradient)"/>
  
  <!-- Stars -->
  <circle cx="200" cy="100" r="2" fill="#ffffff" opacity="0.8"/>
  <circle cx="400" cy="150" r="1.5" fill="#ffffff" opacity="0.6"/>
  <circle cx="600" cy="80" r="2" fill="#ffffff" opacity="0.9"/>
  <circle cx="800" cy="120" r="1" fill="#ffffff" opacity="0.7"/>
  <circle cx="1000" cy="90" r="2" fill="#ffffff" opacity="0.8"/>
  <circle cx="1200" cy="140" r="1.5" fill="#ffffff" opacity="0.6"/>
  <circle cx="1400" cy="110" r="2" fill="#ffffff" opacity="0.9"/>
  <circle cx="1600" cy="160" r="1" fill="#ffffff" opacity="0.7"/>
  <circle cx="1800" cy="130" r="2" fill="#ffffff" opacity="0.8"/>
  
  <!-- City Buildings -->
  <rect x="100" y="600" width="80" height="480" fill="#2c2c54" opacity="0.8"/>
  <rect x="105" y="620" width="10" height="15" fill="url(#redGlow)" opacity="0.9"/>
  <rect x="125" y="640" width="10" height="15" fill="url(#redGlow)" opacity="0.7"/>
  <rect x="145" y="660" width="10" height="15" fill="url(#redGlow)" opacity="0.8"/>
  
  <rect x="220" y="500" width="100" height="580" fill="#40407a" opacity="0.8"/>
  <rect x="230" y="520" width="12" height="18" fill="url(#redGlow)" opacity="0.9"/>
  <rect x="250" y="540" width="12" height="18" fill="url(#redGlow)" opacity="0.6"/>
  <rect x="270" y="560" width="12" height="18" fill="url(#redGlow)" opacity="0.8"/>
  <rect x="290" y="580" width="12" height="18" fill="url(#redGlow)" opacity="0.7"/>
  
  <rect x="360" y="400" width="120" height="680" fill="#2c2c54" opacity="0.8"/>
  <rect x="370" y="420" width="15" height="20" fill="url(#redGlow)" opacity="0.9"/>
  <rect x="395" y="450" width="15" height="20" fill="url(#redGlow)" opacity="0.6"/>
  <rect x="420" y="480" width="15" height="20" fill="url(#redGlow)" opacity="0.8"/>
  <rect x="445" y="510" width="15" height="20" fill="url(#redGlow)" opacity="0.7"/>
  
  <rect x="520" y="350" width="90" height="730" fill="#40407a" opacity="0.8"/>
  <rect x="530" y="370" width="12" height="18" fill="url(#redGlow)" opacity="0.9"/>
  <rect x="550" y="400" width="12" height="18" fill="url(#redGlow)" opacity="0.7"/>
  <rect x="570" y="430" width="12" height="18" fill="url(#redGlow)" opacity="0.8"/>
  
  <rect x="650" y="450" width="110" height="630" fill="#2c2c54" opacity="0.8"/>
  <rect x="660" y="470" width="14" height="19" fill="url(#redGlow)" opacity="0.9"/>
  <rect x="685" y="500" width="14" height="19" fill="url(#redGlow)" opacity="0.6"/>
  <rect x="710" y="530" width="14" height="19" fill="url(#redGlow)" opacity="0.8"/>
  
  <!-- Distant Buildings -->
  <rect x="1200" y="550" width="85" height="530" fill="#2c2c54" opacity="0.6"/>
  <rect x="1210" y="570" width="10" height="15" fill="url(#redGlow)" opacity="0.5"/>
  <rect x="1230" y="590" width="10" height="15" fill="url(#redGlow)" opacity="0.4"/>
  
  <rect x="1320" y="480" width="105" height="600" fill="#40407a" opacity="0.6"/>
  <rect x="1330" y="500" width="12" height="18" fill="url(#redGlow)" opacity="0.5"/>
  <rect x="1355" y="520" width="12" height="18" fill="url(#redGlow)" opacity="0.4"/>
  
  <rect x="1460" y="420" width="95" height="660" fill="#2c2c54" opacity="0.6"/>
  <rect x="1470" y="440" width="11" height="17" fill="url(#redGlow)" opacity="0.5"/>
  <rect x="1490" y="460" width="11" height="17" fill="url(#redGlow)" opacity="0.4"/>
  
  <rect x="1580" y="380" width="115" height="700" fill="#40407a" opacity="0.6"/>
  <rect x="1590" y="400" width="13" height="19" fill="url(#redGlow)" opacity="0.5"/>
  <rect x="1615" y="420" width="13" height="19" fill="url(#redGlow)" opacity="0.4"/>
  
  <!-- Magic Particles -->
  <circle cx="300" cy="300" r="3" fill="#ff6b6b" opacity="0.8" filter="url(#glow)">
    <animate attributeName="opacity" values="0.3;0.8;0.3" dur="3s" repeatCount="indefinite"/>
  </circle>
  <circle cx="500" cy="250" r="2" fill="#ee5a52" opacity="0.6" filter="url(#glow)">
    <animate attributeName="opacity" values="0.2;0.7;0.2" dur="2.5s" repeatCount="indefinite"/>
  </circle>
  <circle cx="800" cy="200" r="4" fill="#d63384" opacity="0.7" filter="url(#glow)">
    <animate attributeName="opacity" values="0.4;0.9;0.4" dur="3.5s" repeatCount="indefinite"/>
  </circle>
  <circle cx="1100" cy="280" r="2.5" fill="#ff6b6b" opacity="0.5" filter="url(#glow)">
    <animate attributeName="opacity" values="0.2;0.6;0.2" dur="2.8s" repeatCount="indefinite"/>
  </circle>
  <circle cx="1400" cy="220" r="3.5" fill="#ee5a52" opacity="0.8" filter="url(#glow)">
    <animate attributeName="opacity" values="0.3;0.8;0.3" dur="3.2s" repeatCount="indefinite"/>
  </circle>
  
  <!-- Floating Red Sparkles -->
  <circle cx="400" cy="350" r="1.5" fill="#ff6b6b" opacity="0.9">
    <animateTransform attributeName="transform" attributeType="XML" type="translate" values="0,0; 10,-10; 0,0" dur="4s" repeatCount="indefinite"/>
  </circle>
  <circle cx="700" cy="300" r="1" fill="#d63384" opacity="0.7">
    <animateTransform attributeName="transform" attributeType="XML" type="translate" values="0,0; -8,-12; 0,0" dur="3.5s" repeatCount="indefinite"/>
  </circle>
  <circle cx="1000" cy="320" r="2" fill="#ee5a52" opacity="0.8">
    <animateTransform attributeName="transform" attributeType="XML" type="translate" values="0,0; 12,-8; 0,0" dur="4.2s" repeatCount="indefinite"/>
  </circle>
  <circle cx="1300" cy="270" r="1.2" fill="#ff6b6b" opacity="0.6">
    <animateTransform attributeName="transform" attributeType="XML" type="translate" values="0,0; -6,-14; 0,0" dur="3.8s" repeatCount="indefinite"/>
  </circle>
</svg>